<svg xmlns="http://www.w3.org/2000/svg" xmlns:xlink="http://www.w3.org/1999/xlink" width="500" zoomAndPan="magnify" viewBox="0 0 375 374.999991" height="500" preserveAspectRatio="xMidYMid meet" version="1.0"><defs><clipPath id="f9c47402f9"><path d="M 11 264 L 365 264 L 365 308.898438 L 11 308.898438 Z M 11 264 " clip-rule="nonzero"/></clipPath></defs><path fill="#000000" d="M 341.976562 66.003906 L 33.394531 66.003906 C 21.238281 66.003906 11.351562 75.871094 11.351562 88.003906 C 11.351562 100.136719 21.238281 110.003906 33.394531 110.003906 L 341.976562 110.003906 C 354.128906 110.003906 364.015625 100.136719 364.015625 88.003906 C 364.015625 75.871094 354.128906 66.003906 341.976562 66.003906 Z M 341.976562 66.003906 " fill-opacity="1" fill-rule="nonzero"/><path fill="#000000" d="M 341.976562 165.398438 L 33.394531 165.398438 C 21.238281 165.398438 11.351562 175.265625 11.351562 187.398438 C 11.351562 199.535156 21.238281 209.402344 33.394531 209.402344 L 341.976562 209.402344 C 354.128906 209.402344 364.015625 199.535156 364.015625 187.398438 C 364.015625 175.265625 354.128906 165.398438 341.976562 165.398438 Z M 341.976562 165.398438 " fill-opacity="1" fill-rule="nonzero"/><g clip-path="url(#f9c47402f9)"><path fill="#000000" d="M 341.976562 264.792969 L 33.394531 264.792969 C 21.238281 264.792969 11.351562 274.660156 11.351562 286.792969 C 11.351562 298.929688 21.238281 308.796875 33.394531 308.796875 L 341.976562 308.796875 C 354.128906 308.796875 364.015625 298.929688 364.015625 286.792969 C 364.015625 274.660156 354.128906 264.792969 341.976562 264.792969 Z M 341.976562 264.792969 " fill-opacity="1" fill-rule="nonzero"/></g></svg>